<svg xmlns:xlink="http://www.w3.org/1999/xlink" xmlns="http://www.w3.org/2000/svg" id="_图层_1" data-name="图层 1" viewBox="0 0 81.03 80.95" width="81.03"  height="80.95" ><script xmlns="" src="chrome-extension://necpbmbhhdiplmfhmjicabdeighkndkn/frame_ant/frame_ant.js"/>
  <defs>
    <style>
      .cls-1 {
        fill: #fff;
      }

      .cls-2 {
        fill: #4d6bff;
      }
    </style>
  </defs>
  <path class="cls-2" d="M0,40.47c0,22.35,18.13,40.47,40.51,40.48,22.38,0,40.52-18.11,40.52-40.46h0C81.03,18.12,62.89,0,40.52,0S0,18.12,0,40.47Z"/>
  <path class="cls-1" d="M31.87,48.86c.11,.05,.2,.14,.25,.25l7.44,15.87c.29,.62,1.16,.64,1.42,.03L59.21,22.94c.32-.74-.43-1.49-1.17-1.17L15.97,40c-.61,.26-.59,1.13,.03,1.42l15.86,7.44Z"/>
<script xmlns="" id="vsc-settings-data">{"audioBoolean":true,"blacklist":"www.instagram.com\ntwitter.com\nimgur.com\nteams.microsoft.com\n","controllerButtonSize":14,"controllerOpacity":0.5,"defaultLogLevel":4,"displayKeyCode":86,"enabled":true,"forceLastSavedSpeed":false,"keyBindings":[{"action":"display","force":"false","key":86,"predefined":true,"value":0},{"action":"slower","force":"false","key":83,"predefined":true,"value":0.5},{"action":"faster","force":"false","key":68,"predefined":true,"value":0.5},{"action":"rewind","force":"false","key":90,"predefined":true,"value":10},{"action":"advance","force":"false","key":88,"predefined":true,"value":10},{"action":"reset","force":"false","key":82,"predefined":true,"value":2},{"action":"fast","force":"false","key":71,"predefined":true,"value":1}],"lastSpeed":1,"logLevel":3,"rememberSpeed":false,"speed":1,"speeds":{"blob:https://x.com/ae705575-ef6b-4b7a-ab7e-0c134cd98c0a":1},"startHidden":false,"version":"0.5.3"}</script><script xmlns=""/></svg>